HIERARCHY
ROOT Hips
{
	OFFSET -0.001795 -0.223333 0.028219
	CHANNELS 6 Xposition Yposition Zposition Zrotation Yrotation Xrotation 
	JOINT LeftUpLeg
	{
		OFFSET 0.069520 -0.091406 -0.006815
		CHANNELS 3 Zrotation Yrotation Xrotation
		JOINT LeftLeg
		{
			OFFSET 0.034277 -0.375199 -0.004496
			CHANNELS 3 Zrotation Yrotation Xrotation
			JOINT LeftFoot
			{
				OFFSET -0.013596 -0.397961 -0.043693
				CHANNELS 3 Zrotation Yrotation Xrotation
				JOINT LeftToe
				{
					OFFSET 0.026358 -0.055791 0.119288
					CHANNELS 3 Zrotation Yrotation Xrotation
					End Site
					{
						OFFSET 0.000000 0.000000 0.000000
					}
				}
			}
		}
	}
	JOINT RightUpLeg
	{
		OFFSET -0.067670 -0.090522 -0.004320
		CHANNELS 3 Zrotation Yrotation Xrotation
		JOINT RightLeg
		{
			OFFSET -0.038290 -0.382569 -0.008850
			CHANNELS 3 Zrotation Yrotation Xrotation
			JOINT RightFoot
			{
				OFFSET 0.015774 -0.398415 -0.042312
				CHANNELS 3 Zrotation Yrotation Xrotation
				JOINT RightToe
				{
					OFFSET -0.025372 -0.048144 0.123348
					CHANNELS 3 Zrotation Yrotation Xrotation
					End Site
					{
						OFFSET 0.000000 0.000000 0.000000
					}
				}
			}
		}
	}
	JOINT Spine
	{
		OFFSET -0.002533 0.108963 -0.026696
		CHANNELS 3 Zrotation Yrotation Xrotation
		JOINT Spine1
		{
			OFFSET 0.005487 0.135180 0.001092
			CHANNELS 3 Zrotation Yrotation Xrotation
			JOINT Spine2
			{
				OFFSET 0.001457 0.052922 0.025425
				CHANNELS 3 Zrotation Yrotation Xrotation
				JOINT Neck
				{
					OFFSET -0.002778 0.213870 -0.042857
					CHANNELS 3 Zrotation Yrotation Xrotation
					JOINT Head
					{
						OFFSET 0.005152 0.064970 0.051349
						CHANNELS 3 Zrotation Yrotation Xrotation
						End Site
						{
							OFFSET 0.000000 0.000000 0.000000
						}
					}
				}
				JOINT LeftShoulder
				{
					OFFSET 0.078845 0.121749 -0.034090
					CHANNELS 3 Zrotation Yrotation Xrotation
					JOINT LeftArm
					{
						OFFSET 0.090977 0.030469 -0.008868
						CHANNELS 3 Zrotation Yrotation Xrotation
						JOINT LeftForeArm
						{
							OFFSET 0.259612 -0.012772 -0.027456
							CHANNELS 3 Zrotation Yrotation Xrotation
							JOINT LeftHand
							{
								OFFSET 0.249234 0.008986 -0.001171
								CHANNELS 3 Zrotation Yrotation Xrotation
								End Site
								{
									OFFSET 0.000000 0.000000 0.000000
								}
							}
						}
					}
				}
				JOINT RightShoulder
				{
					OFFSET -0.081759 0.118833 -0.038615
					CHANNELS 3 Zrotation Yrotation Xrotation
					JOINT RightArm
					{
						OFFSET -0.096012 0.032551 -0.009143
						CHANNELS 3 Zrotation Yrotation Xrotation
						JOINT RightForeArm
						{
							OFFSET -0.253742 -0.013329 -0.021401
							CHANNELS 3 Zrotation Yrotation Xrotation
							JOINT RightHand
							{
								OFFSET -0.255298 0.007772 -0.005559
								CHANNELS 3 Zrotation Yrotation Xrotation
								End Site
								{
									OFFSET 0.000000 0.000000 0.000000
								}
							}
						}
					}
				}
			}
		}
	}
}
MOTION
Frames: 17
Frame Time: 0.050000
-0.297079 0.685460 0.344817 -175.821585 38.260141 -161.779094 110.676962 -17.729050 -88.961076 -47.045020 -44.089449 -43.850013 127.334317 19.283608 145.419437 0.000000 0.000000 0.000000 65.744462 -20.398969 -94.477532 -113.698826 -6.823642 30.325976 56.750488 68.457814 29.688569 0.000000 0.000000 0.000000 -76.322176 -23.689161 81.129918 -25.558045 0.391377 -23.161127 79.712059 62.746524 66.833101 7.228494 2.736452 -19.879520 0.000000 0.000000 0.000000 1.616287 -41.026035 -8.965531 -52.031162 -27.065574 1.411269 -0.040772 -30.456955 -7.628221 0.000000 0.000000 0.000000 6.057250 24.419705 32.092333 38.790103 70.369676 29.782872 -32.790363 7.784039 -4.623483 0.000000 0.000000 0.000000 
-0.291549 0.687939 0.326785 -175.842452 36.550915 -163.298045 102.519035 -19.891951 -89.383291 -56.291895 -48.619868 -32.854511 131.851000 19.224483 144.609743 0.000000 0.000000 0.000000 60.040470 -24.261545 -91.418598 -118.990474 -8.095659 35.262191 70.825229 67.989004 46.161561 0.000000 0.000000 0.000000 -75.497833 -24.550013 80.187912 -25.914226 -0.101059 -22.293325 79.700803 62.638307 66.902623 8.143717 1.634462 -19.608169 0.000000 0.000000 0.000000 -0.897877 -41.325766 -13.278899 -53.583275 -21.057358 1.722937 -0.316211 -28.854934 -6.844079 0.000000 0.000000 0.000000 6.743442 24.098853 34.380473 38.868710 71.426635 29.888677 -32.325535 6.083870 -4.324937 0.000000 0.000000 0.000000 
-0.286018 0.694514 0.308859 -175.764661 35.523742 -164.472204 93.688026 -22.509501 -88.441990 -66.458736 -51.319653 -20.512394 135.266348 18.755285 143.885601 0.000000 0.000000 0.000000 55.386053 -26.805383 -88.123664 -123.549562 -9.631816 38.545460 85.934463 63.924544 64.599561 0.000000 0.000000 0.000000 -71.753333 -25.717378 78.047015 -26.510186 -0.982586 -20.743804 74.893656 62.597036 62.616289 8.692495 0.488279 -19.003557 0.000000 0.000000 0.000000 -2.432771 -41.714275 -16.181428 -53.730447 -16.656716 1.709099 -2.029227 -28.947326 -6.151208 0.000000 0.000000 0.000000 7.378105 23.230441 35.602929 39.949372 72.559365 30.859659 -32.135612 5.822459 -4.392145 0.000000 0.000000 0.000000 
-0.280698 0.706035 0.292097 -175.569598 33.122178 -166.549248 81.170001 -26.273127 -85.809802 -82.569743 -51.052963 0.316206 136.248173 20.209624 142.155792 0.000000 0.000000 0.000000 51.623689 -29.672907 -86.148361 -129.414160 -10.472936 41.802272 90.880747 54.488583 77.046820 0.000000 0.000000 0.000000 -71.987367 -26.336826 77.969478 -26.495019 -1.139639 -19.381984 75.385584 63.005258 62.845504 9.490674 -1.442462 -18.162944 0.000000 0.000000 0.000000 -4.782210 -42.795380 -20.519232 -53.261297 -9.958467 1.815697 -1.810467 -27.680511 -5.566887 0.000000 0.000000 0.000000 8.419806 22.236270 37.712067 37.026154 73.031251 27.925329 -32.501214 5.596226 -4.404042 0.000000 0.000000 0.000000 
-0.274932 0.724382 0.277196 -175.603572 31.133527 -167.666681 68.665908 -29.320500 -80.481350 -91.517957 -47.748231 16.162212 137.106182 21.089690 139.504490 0.000000 0.000000 0.000000 53.177230 -30.095608 -87.609609 -135.415659 -14.775188 40.652511 90.802330 42.939886 86.057330 0.000000 0.000000 0.000000 -69.850904 -27.168091 76.875568 -26.175239 -2.012386 -18.245002 73.061751 62.543180 60.913805 8.052136 -3.801457 -16.158185 0.000000 0.000000 0.000000 -5.677104 -42.903651 -24.229938 -53.550727 -5.381724 1.256846 -1.810466 -26.834766 -5.186990 0.000000 0.000000 0.000000 9.712220 21.927464 40.434091 28.080807 72.872841 19.743364 -33.762613 6.111105 -4.770146 0.000000 0.000000 0.000000 
-0.268559 0.745982 0.264578 -175.208125 29.564914 -169.121028 52.614592 -30.838318 -70.446156 -95.618135 -40.137978 31.580543 132.057463 26.594788 131.738533 0.000000 0.000000 0.000000 54.722693 -30.422253 -89.090972 -138.712818 -19.595871 39.341411 85.871535 33.262297 89.694606 0.000000 0.000000 0.000000 -65.317787 -28.153453 74.172862 -27.211459 -3.603588 -15.814555 70.629994 62.225400 58.258833 6.968187 -5.843114 -15.126377 0.000000 0.000000 0.000000 -7.498993 -46.058308 -28.828816 -52.281840 2.087314 1.112512 0.158157 -27.139140 -5.600196 0.000000 0.000000 0.000000 11.323235 21.186128 43.703384 21.337585 71.154565 12.720663 -35.023062 7.076756 -5.195320 0.000000 0.000000 0.000000 
-0.261170 0.768168 0.254040 -175.193761 27.162745 -170.847935 36.374963 -29.657432 -59.489077 -92.736921 -32.366994 43.250334 123.038137 30.960124 119.478740 0.000000 0.000000 0.000000 56.433741 -30.242933 -89.473598 -139.086971 -22.554588 39.725663 83.582256 28.665666 90.427237 0.000000 0.000000 0.000000 -61.536446 -29.096314 72.864059 -28.171542 -5.565875 -14.129887 67.803570 60.723182 55.373969 4.369194 -7.798899 -12.835868 0.000000 0.000000 0.000000 -9.506837 -47.444875 -32.821140 -49.696392 8.135639 1.249336 -1.018176 -26.940051 -4.693233 0.000000 0.000000 0.000000 10.548979 20.688420 44.169599 20.173412 70.211218 12.129432 -35.634879 7.218294 -5.258656 0.000000 0.000000 0.000000 
-0.252605 0.790465 0.245316 -175.444023 26.661392 -172.292543 25.005389 -26.131313 -50.390242 -84.491984 -27.205295 49.688658 105.280916 29.709114 104.127201 0.000000 0.000000 0.000000 55.972587 -29.653480 -87.023408 -133.997537 -23.195226 40.289978 80.687526 27.067384 86.286913 0.000000 0.000000 0.000000 -58.189367 -29.131318 69.553192 -29.357251 -6.894497 -10.061594 62.627195 60.879782 48.792809 3.385576 -8.595071 -11.710793 0.000000 0.000000 0.000000 -12.716110 -47.487099 -34.582285 -48.051636 13.668053 0.965325 0.792573 -27.858575 -5.081981 0.000000 0.000000 0.000000 14.080277 20.822641 45.477485 17.868481 67.722996 7.264471 -34.283629 8.135702 -5.218369 0.000000 0.000000 0.000000 
-0.243271 0.810307 0.237570 -175.479447 25.340403 -173.561693 18.195526 -22.685572 -44.219920 -77.011843 -25.491316 52.702412 91.397589 23.790846 91.112982 0.000000 0.000000 0.000000 55.757159 -29.447524 -85.388357 -127.834426 -22.256350 41.104089 77.748734 26.153989 81.586959 0.000000 0.000000 0.000000 -51.837730 -29.372706 65.353170 -29.164449 -8.617088 -6.991100 56.051891 59.352128 43.171049 2.260930 -9.529850 -11.271647 0.000000 0.000000 0.000000 -13.838829 -46.268575 -37.071051 -46.614805 18.474541 -0.376986 -0.325042 -28.105256 -4.354948 0.000000 0.000000 0.000000 15.783721 18.223769 46.656768 18.741911 66.614488 6.465813 -34.458036 10.260195 -5.717708 0.000000 0.000000 0.000000 
-0.233056 0.830314 0.230122 -175.380371 25.755717 -174.217456 13.932304 -19.141742 -39.278087 -68.084768 -24.553270 52.743898 81.397166 17.588673 79.068381 0.000000 0.000000 0.000000 53.642902 -28.882204 -81.717367 -115.468721 -18.373495 42.226324 73.988353 30.889285 70.746195 0.000000 0.000000 0.000000 -45.060576 -28.371565 59.787728 -28.254357 -9.925416 -2.152664 47.701779 57.243325 34.839120 0.913961 -9.425860 -10.203234 0.000000 0.000000 0.000000 -16.511633 -43.923955 -37.421955 -46.576928 21.637417 -1.328414 -0.809991 -27.893141 -3.870720 0.000000 0.000000 0.000000 17.643295 17.061990 45.907621 23.466408 64.134057 7.526182 -33.787974 12.049544 -5.772460 0.000000 0.000000 0.000000 
-0.222286 0.850359 0.221989 -175.568650 26.446716 -175.136713 9.981222 -14.929855 -33.833404 -58.494189 -24.067601 51.099083 73.277791 9.060797 67.986034 0.000000 0.000000 0.000000 50.315427 -28.760895 -77.983074 -100.969160 -14.439107 43.768963 65.640303 32.490830 58.810898 0.000000 0.000000 0.000000 -37.994975 -26.620087 53.612281 -27.479895 -11.537417 1.664744 40.448286 53.919802 28.141870 1.334781 -9.183986 -9.654114 0.000000 0.000000 0.000000 -17.401807 -41.128809 -37.209235 -46.100703 23.936140 -2.722989 -3.434122 -27.788806 -2.820757 0.000000 0.000000 0.000000 21.518812 14.487987 46.656789 24.097409 61.937643 5.063452 -33.333689 14.792283 -6.395205 0.000000 0.000000 0.000000 
-0.210424 0.868577 0.212557 -175.204166 27.658427 -175.517820 7.882146 -11.089439 -28.438394 -46.966850 -23.012536 46.370033 69.660642 3.117758 55.517249 0.000000 0.000000 0.000000 44.593583 -28.572974 -72.124404 -81.609541 -11.727546 45.223412 54.319206 32.861231 43.708033 0.000000 0.000000 0.000000 -31.152236 -23.921826 47.750476 -26.242740 -13.635626 5.830020 33.881118 50.125773 22.433623 0.576387 -7.547133 -9.629485 0.000000 0.000000 0.000000 -17.690289 -37.320603 -35.723475 -47.197031 23.612996 -3.858524 -5.306285 -27.439428 -2.332280 0.000000 0.000000 0.000000 23.192895 13.615500 45.874549 27.773551 59.730427 5.591022 -33.732734 18.131722 -7.267637 0.000000 0.000000 0.000000 
-0.197906 0.881980 0.202558 -175.500467 29.701190 -175.509103 6.258876 -7.970658 -23.541122 -37.333607 -21.175944 40.510747 67.220828 1.551933 44.046167 0.000000 0.000000 0.000000 37.664281 -27.615420 -65.235664 -61.403977 -11.086261 44.341629 38.518968 29.171375 28.270306 0.000000 0.000000 0.000000 -23.972648 -20.783645 42.232839 -25.695838 -15.325086 8.778459 28.534317 45.212800 17.789887 1.038882 -5.411486 -10.254765 0.000000 0.000000 0.000000 -17.024993 -34.482584 -32.584315 -49.199748 21.485862 -4.918895 -6.475727 -26.049557 -2.011640 0.000000 0.000000 0.000000 25.430847 12.356038 44.801029 30.712013 58.825136 5.860291 -31.998344 17.743692 -6.542071 0.000000 0.000000 0.000000 
-0.183702 0.889652 0.192089 -176.967540 31.059657 -176.799551 3.860220 -5.575998 -19.738285 -31.524781 -19.868694 37.690320 65.445990 -1.630832 40.424218 0.000000 0.000000 0.000000 28.320108 -25.838025 -55.931536 -45.896534 -12.657330 43.109179 26.538685 23.568199 16.013048 0.000000 0.000000 0.000000 -19.404189 -18.645897 38.999765 -25.550823 -16.406246 10.206379 24.597318 41.128069 15.332391 3.888992 -4.756922 -10.315939 0.000000 0.000000 0.000000 -16.490249 -33.561546 -29.735380 -49.923370 20.076318 -5.341865 -6.863658 -26.634124 -2.132285 0.000000 0.000000 0.000000 26.915767 10.576835 43.200783 32.367800 58.865049 6.145920 -30.119875 17.320626 -5.757748 0.000000 0.000000 0.000000 
-0.167245 0.889846 0.182660 -179.407792 32.829178 -178.321871 1.498726 -3.722762 -16.641153 -28.240587 -18.847759 35.663163 63.187597 -0.057453 36.416272 0.000000 0.000000 0.000000 23.170876 -24.063896 -50.660903 -39.502237 -13.383179 41.763135 24.594519 21.203116 12.977875 0.000000 0.000000 0.000000 -16.763140 -16.755491 36.591596 -24.827677 -16.965407 12.000511 19.606986 38.622579 11.945499 5.853098 -3.830544 -10.994116 0.000000 0.000000 0.000000 -14.994763 -33.277973 -24.749219 -51.770864 14.428803 -4.715322 -5.183293 -25.804777 -2.711805 0.000000 0.000000 0.000000 25.736223 10.792699 40.294793 40.836302 59.092319 11.710942 -28.896327 16.287262 -4.833589 0.000000 0.000000 0.000000 
-0.148854 0.887575 0.175078 179.051350 33.697840 -179.035650 0.127299 -3.020887 -15.559276 -29.066407 -19.212941 37.082151 64.511985 1.277868 38.065490 0.000000 0.000000 0.000000 21.380087 -22.194017 -47.521454 -39.211988 -14.108302 42.098776 25.809562 21.849144 10.885621 0.000000 0.000000 0.000000 -14.108153 -14.869104 34.145296 -24.885021 -18.215776 13.754668 17.828342 36.961017 11.250077 7.519994 -3.632072 -11.502278 0.000000 0.000000 0.000000 -14.025671 -33.729442 -22.486108 -52.173578 12.125893 -4.403273 -5.197882 -27.222037 -3.102256 0.000000 0.000000 0.000000 27.370015 9.495764 40.351499 39.519046 59.906740 10.661005 -28.279251 15.681871 -4.456485 0.000000 0.000000 0.000000 
-0.129089 0.883085 0.168353 178.276685 34.717674 -178.965431 0.787254 -3.862135 -17.778886 -38.747288 -21.368140 44.140283 62.637314 7.579404 45.389507 0.000000 0.000000 0.000000 21.409527 -20.330411 -45.666324 -39.510432 -14.462446 42.271551 26.780694 23.289282 7.677606 0.000000 0.000000 0.000000 -13.034532 -14.085820 33.292593 -26.126764 -18.963588 15.434179 18.133576 37.366082 10.066566 6.885407 -3.920396 -10.355920 0.000000 0.000000 0.000000 -14.024084 -33.156986 -21.367078 -51.942144 9.845938 -3.356049 -3.509603 -26.702639 -3.493221 0.000000 0.000000 0.000000 28.159988 9.164616 39.876975 39.213999 59.234378 9.890698 -26.116456 15.694687 -4.111523 0.000000 0.000000 0.000000 
